<svg width="256" height="256" viewBox="0 0 256 256" fill="none" xmlns="http://www.w3.org/2000/svg" role="img" aria-labelledby="title desc">
  <title id="title">compose-tunnel logo</title>
  <desc id="desc">A secure tunnel mark connecting a local port to private Compose services.</desc>
  <rect width="256" height="256" rx="48" fill="#102D29"/>
  <path d="M54 142C54 101.131 87.131 68 128 68C168.869 68 202 101.131 202 142V178H176V142C176 115.49 154.51 94 128 94C101.49 94 80 115.49 80 142V178H54V142Z" fill="#E7B95F"/>
  <path d="M88 174H168" stroke="#F5FBF8" stroke-width="14" stroke-linecap="round"/>
  <path d="M92 142H164" stroke="#5FD0B5" stroke-width="12" stroke-linecap="round" stroke-dasharray="1 24"/>
  <rect x="54" y="172" width="148" height="42" rx="14" fill="#F5FBF8"/>
  <rect x="76" y="184" width="32" height="18" rx="5" fill="#5FD0B5"/>
  <rect x="112" y="184" width="32" height="18" rx="5" fill="#102D29"/>
  <rect x="148" y="184" width="32" height="18" rx="5" fill="#E7B95F"/>
  <circle cx="64" cy="64" r="10" fill="#5FD0B5"/>
  <circle cx="192" cy="64" r="10" fill="#E7B95F"/>
  <path d="M74 64H98" stroke="#5FD0B5" stroke-width="8" stroke-linecap="round"/>
  <path d="M158 64H182" stroke="#E7B95F" stroke-width="8" stroke-linecap="round"/>
</svg>
