<svg width="1280" height="420" viewBox="0 0 1280 420" fill="none" xmlns="http://www.w3.org/2000/svg" role="img" aria-labelledby="title desc">
  <title id="title">compose-tunnel</title>
  <desc id="desc">compose-tunnel logo and slogan: Reach private Compose services. Keep remote ports closed.</desc>
  <rect width="1280" height="420" rx="28" fill="#F4F7F6"/>
  <rect x="32" y="32" width="1216" height="356" rx="24" fill="#102D29"/>
  <path d="M860 76C956 68 1051 99 1125 165C1166 202 1196 249 1214 302" stroke="#1D5148" stroke-width="24" stroke-linecap="round"/>
  <path d="M891 112C965 110 1035 137 1090 187C1120 214 1143 248 1157 286" stroke="#2A6C60" stroke-width="14" stroke-linecap="round"/>
  <circle cx="1038" cy="214" r="74" fill="#163A34" stroke="#5FD0B5" stroke-width="6"/>
  <rect x="978" y="190" width="50" height="34" rx="8" fill="#5FD0B5"/>
  <rect x="1036" y="190" width="50" height="34" rx="8" fill="#F5FBF8"/>
  <rect x="1007" y="230" width="50" height="34" rx="8" fill="#E7B95F"/>
  <path d="M174 235C174 170.383 226.383 118 291 118C355.617 118 408 170.383 408 235V292H369V235C369 191.922 334.078 157 291 157C247.922 157 213 191.922 213 235V292H174V235Z" fill="#E7B95F"/>
  <path d="M224 285H358" stroke="#F5FBF8" stroke-width="18" stroke-linecap="round"/>
  <path d="M232 235H350" stroke="#5FD0B5" stroke-width="14" stroke-linecap="round" stroke-dasharray="1 30"/>
  <rect x="174" y="284" width="234" height="62" rx="18" fill="#F5FBF8"/>
  <rect x="209" y="302" width="48" height="26" rx="7" fill="#5FD0B5"/>
  <rect x="267" y="302" width="48" height="26" rx="7" fill="#102D29"/>
  <rect x="325" y="302" width="48" height="26" rx="7" fill="#E7B95F"/>
  <circle cx="188" cy="126" r="12" fill="#5FD0B5"/>
  <circle cx="394" cy="126" r="12" fill="#E7B95F"/>
  <path d="M202 126H240" stroke="#5FD0B5" stroke-width="9" stroke-linecap="round"/>
  <path d="M342 126H380" stroke="#E7B95F" stroke-width="9" stroke-linecap="round"/>
  <text x="486" y="170" fill="#F5FBF8" font-family="Inter, ui-sans-serif, system-ui, -apple-system, BlinkMacSystemFont, 'Segoe UI', sans-serif" font-size="66" font-weight="800">compose-tunnel</text>
  <text x="490" y="226" fill="#BFD4CE" font-family="Inter, ui-sans-serif, system-ui, -apple-system, BlinkMacSystemFont, 'Segoe UI', sans-serif" font-size="28" font-weight="500">Reach private Compose services. Keep remote ports closed.</text>
  <rect x="490" y="272" width="410" height="54" rx="12" fill="#163A34" stroke="#2A6C60"/>
  <circle cx="522" cy="299" r="7" fill="#5FD0B5"/>
  <text x="542" y="309" fill="#DCEBE6" font-family="SFMono-Regular, Consolas, 'Liberation Mono', monospace" font-size="22">127.0.0.1 -> SSH -> Compose DNS</text>
</svg>
